<svg width="103" height="104" viewBox="0 0 103 104" fill="none" xmlns="http://www.w3.org/2000/svg">
<g clip-path="url(#clip0_93_16)">
<path d="M64.9493 89.4946C85.7084 81.9389 96.4119 58.9852 88.8562 38.2261C81.3005 17.467 58.3468 6.7635 37.5877 14.3192C16.8286 21.8749 6.12511 44.8286 13.6808 65.5877C21.2365 86.3468 44.1902 97.0503 64.9493 89.4946Z" fill="#252A2E"/>
<path d="M54.7683 36.4699C55.4461 38.3321 54.4851 39.7903 52.6811 40.4469C50.6337 41.1921 49.1285 40.3979 47.6476 39.0617L45.2569 36.8883C44.5427 37.3865 44.0188 38.1123 43.7708 38.947C43.5228 39.7817 43.5654 40.6758 43.8918 41.4831C44.5695 43.3453 45.9927 44.5228 47.491 46.4339L53.0247 44.4198L53.6023 46.0069L48.4813 47.8708C49.2352 49.0983 49.8565 50.4025 50.3348 51.7614L54.3591 62.8182C56.015 67.3679 56.3798 68.0738 60.2336 66.8269L60.5918 67.8109L44.943 73.5066L44.5849 72.5226C47.407 71.3217 47.2384 70.5623 45.5825 66.0126L40.0967 50.9405L37.1235 52.0226L36.5458 50.4356L39.5243 49.3515C36.74 41.7017 40.1446 37.2453 46.7257 34.8499C50.5295 33.4655 53.9149 34.1085 54.7794 36.4839" fill="#DADCF5"/>
<path d="M59.6975 62.5227C59.2199 61.2067 59.2785 59.7557 59.8607 58.4825C60.4429 57.2093 61.5021 56.2159 62.8099 55.7163C64.1596 55.225 65.6493 55.2901 66.9511 55.8971C68.2529 56.5041 69.2602 57.6035 69.7515 58.9532C70.2428 60.303 70.1778 61.7926 69.5707 63.0944C68.9637 64.3962 67.8643 65.4036 66.5146 65.8949C65.1739 66.356 63.705 66.266 62.4306 65.6446C61.1563 65.0232 60.1809 63.9212 59.7187 62.5809L59.6936 62.5121" fill="#DADCF5"/>
</g>
<defs>
<clipPath id="clip0_93_16">
<rect width="80" height="80" fill="white" transform="translate(0 28) rotate(-20)"/>
</clipPath>
</defs>
</svg>
