<svg width="29" height="25" viewBox="0 0 29 25" fill="none" xmlns="http://www.w3.org/2000/svg">
<path d="M11.0213 5.13285C11.1563 4.17939 11.6503 3.3192 12.3963 2.73879C13.1424 2.15839 14.0802 1.90456 15.0066 2.03236C15.7648 2.14649 16.4671 2.50988 17.0089 3.0685C17.5507 3.62712 17.9033 4.35113 18.014 5.13285C18.1193 5.86767 18.4397 6.55181 18.9325 7.0937C19.4252 7.6356 20.0668 8.00941 20.7713 8.16513L24.2051 8.92319C24.6606 9.02476 25.0922 9.21798 25.4752 9.49174C25.8582 9.76551 26.1851 10.1145 26.4371 10.5187C26.6891 10.9228 26.8614 11.3743 26.9439 11.8472C27.0265 12.3201 27.0178 12.8051 26.9183 13.2745C26.7734 13.9597 26.4406 14.5876 25.9597 15.0834C25.4787 15.5793 24.8697 15.9224 24.2051 16.0718L20.7713 16.8299C20.0659 16.9852 19.4233 17.3587 18.9293 17.9005C18.4353 18.4424 18.1134 19.1267 18.0066 19.8621C17.9417 20.3373 17.7864 20.7946 17.5497 21.2079C17.313 21.6211 16.9995 21.982 16.6273 22.2701C16.255 22.5581 15.8312 22.7676 15.3802 22.8864C14.9292 23.0053 14.46 23.0312 13.9993 22.9626C13.2401 22.8508 12.5366 22.4882 11.9943 21.9291C11.4521 21.3701 11.1003 20.6448 10.9919 19.8621C10.8851 19.1267 10.5632 18.4424 10.0692 17.9005C9.57518 17.3587 8.93261 16.9852 8.22724 16.8299L4.7934 16.0718C3.87498 15.8666 3.07322 15.2937 2.56442 14.4791C2.05562 13.6645 1.88143 12.675 2.08018 11.7281C2.22341 11.0421 2.55559 10.4133 3.03685 9.91709C3.51812 9.42092 4.12803 9.07845 4.7934 8.93078L8.23456 8.17271C8.94593 8.02306 9.59526 7.65086 10.094 7.10687C10.5927 6.56287 10.9165 5.87353 11.0213 5.13285Z" fill="#252A2E" stroke="#252A2E" stroke-width="3"/>
</svg>
